PathFileType	4	(X/Y/Z)	63_1_51_p1_0-226.trc
DataRate	CameraRate	NumFrames	NumMarkers	Units	OrigDataRate	OrigDataStartFrame	OrigNumFrames
60.0	60.0	5	27	m	60.0	56	227
Frame#	Time	RHip			RKnee			RAnkle			RBigToe			RSmallToe			RHeel			LHip			LKnee			LAnkle			LBigToe			LSmallToe			LHeel			Neck			Head			Nose			RShoulder			RElbow			RWrist			RThumb			RIndex			RPinky			LShoulder			LElbow			LWrist			LThumb			LIndex			LPinky			
		X1	Y1	Z1	X2	Y2	Z2	X3	Y3	Z3	X4	Y4	Z4	X5	Y5	Z5	X6	Y6	Z6	X7	Y7	Z7	X8	Y8	Z8	X9	Y9	Z9	X10	Y10	Z10	X11	Y11	Z11	X12	Y12	Z12	X13	Y13	Z13	X14	Y14	Z14	X15	Y15	Z15	X16	Y16	Z16	X17	Y17	Z17	X18	Y18	Z18	X19	Y19	Z19	X20	Y20	Z20	X21	Y21	Z21	X22	Y22	Z22	X23	Y23	Z23	X24	Y24	Z24	X25	Y25	Z25	X26	Y26	Z26	X27	Y27	Z27	
56	0.9333333333333333	0.3160379373489083	0.5689061169387114	0.6785889779708977	0.35221862334110965	0.7157195891540675	1.1516826606580146	0.3528539261001212	0.8342166544891746	1.575504222199978	0.28401596646753036	0.5973318918847882	1.5971128343600258	0.3532620583372083	0.635971611413594	1.59495991832526	0.3414119471041729	0.9365481588494609	1.6340398654344008	0.10510247405969585	0.582215593479138	0.6995253441082495	0.1185335098930888	0.7227065470115586	1.1713257553529817	0.1481388943714011	0.8615323562246611	1.5696081331621645	0.1374464364364003	0.6500401201882132	1.5980284750370284	0.08514734266417491	0.7304700059924298	1.6060714744329936	0.17188744151196453	0.9410264963715455	1.6271805914912074	0.1208909394517312	0.36374225566804225	0.16481546275426723	0.06749054165312317	0.24953905238488375	-0.05295990463275879	0.07000486488252468	0.210147463313338	0.08537757104677136	0.3022460440455453	0.35467050957408325	0.22244387547041747	0.33284379315313267	0.4121811932087488	0.48525420330671987	0.2958187287877873	0.37279572203620776	0.7320694720183303	0.19783108236746444	0.33191157823159767	0.8416778983938529	0.20449010991491803	0.324144477084515	0.863420630534379	0.22682740465949486	0.33965999228015065	0.8565773466612475	-0.006015550058831014	0.4224605168264259	0.2633564170208916	0.031160939406289764	0.4525567302259708	0.5191119591495812	0.09363718565924006	0.410271131644714	0.7676927593471682	0.18206870899030095	0.3908446788237127	0.8238585369276502	0.1870935876803214	0.39368427934594774	0.8701291582846088	0.1764352073110299	0.4219481180203769	0.8746016052573101
57	0.95	0.31626999968715935	0.5685404952785401	0.6822846298727777	0.3476342651478498	0.714669250795838	1.1516718516337017	0.35287463651001666	0.8343100007392116	1.575421662059874	0.28388792637939547	0.5973502020733193	1.5971789546389397	0.35323934900926807	0.6360938871257488	1.5950084077373736	0.3414099965144608	0.9367492726853525	1.6341365383461155	0.10872321130641435	0.567103426743507	0.6988844012685989	0.11929303193916604	0.7215575054201285	1.1669951144169481	0.1525193482052905	0.8632898993503163	1.570032557457344	0.13741715180201433	0.6500100998571774	1.598041125008736	0.08515063135010444	0.7304430488837784	1.6060511981702295	0.17216377420453766	0.9420388456769583	1.627352866743658	0.12094755670860781	0.3636468114060638	0.16483086905483085	0.06410209964059198	0.23838325695705273	-0.050179664333480214	0.07021358818277891	0.21029057725363776	0.08856443485769384	0.30226462504446494	0.35464194667609544	0.22225647322993825	0.3371994741601113	0.42273290757102444	0.4772724546578924	0.2960064716758987	0.37281815232040355	0.7316764270678752	0.20222508491956628	0.31233742914826285	0.8323586797085787	0.2117656737224719	0.3093713432666867	0.8505240807774288	0.23440891143962855	0.3237964793843101	0.8435601321669552	-0.005945143134782994	0.422605019414905	0.26310554615301057	0.031032173432641735	0.4529901270632824	0.5190626305002822	0.09347725729363643	0.4100243929023432	0.7676362916005363	0.17631069096351956	0.3878830955010545	0.8251525272032959	0.1831572242263717	0.40564286947179234	0.8681270546504322	0.17309341190530272	0.436187095443538	0.8759843705381549
58	0.9666666666666667	0.31749124172863247	0.5695838951179732	0.6827749469768742	0.3534688864087376	0.717989219966612	1.1561774148032693	0.35293349799661733	0.8343070073309304	1.5753939202266487	0.2838297446059959	0.5969727263202833	1.5970870305270988	0.3532083018940907	0.6358861639403126	1.5950341600031528	0.3412137645900736	0.9376665983222675	1.6306797291645267	0.1086700070247756	0.5673538332057408	0.6987570879746311	0.1137863973976586	0.7214445985285943	1.1712563474864177	0.15281999207585695	0.8633118088116957	1.5696124057137493	0.13368290160193197	0.6361510803998972	1.5936406823850058	0.0852029667489111	0.73032594561552	1.605855210652986	0.17253298061840766	0.9422447196298662	1.6271233067005442	0.12092348572718975	0.3634895884102712	0.16481702584308483	0.06730551773088972	0.24934367178164832	-0.05308917866616699	0.06646445311187624	0.20890879883080105	0.08900751817839922	0.30227571343032733	0.35453855242395965	0.22215695107139866	0.33733083691805704	0.42285796460510955	0.4774098135436577	0.29573492584067435	0.372038500498155	0.7316997325265877	0.20446822750071644	0.296429636690143	0.8272955982216994	0.2117053788777679	0.3095070576690118	0.8502829204709998	0.23914143248459058	0.3228279986747517	0.8392154476312321	-0.0058469060973631685	0.42266746534851846	0.26277896860873956	0.031176277567794106	0.4533448271774804	0.5189157198409895	0.09255836504767534	0.4077819285282144	0.7638140128479317	0.17164290446759045	0.3755147346427646	0.8207446962387805	0.1783486075900748	0.40241219219476154	0.8681373973820504	0.17289395461163115	0.4361915073363127	0.8756909222933756
59	0.9833333333333333	0.31776911088096466	0.5701734087563757	0.6828386939237431	0.35185412000717736	0.7167946791059373	1.1556173894354456	0.35294063512991314	0.8345964957880188	1.5752509311370637	0.28378105693976446	0.5971273685199194	1.5971808278388508	0.3531623918603356	0.6362040011731014	1.5951397269685872	0.3365961431874971	0.9530118364729177	1.634061370411722	0.10502280970045601	0.5819135498364836	0.699481113908393	0.11419301927428273	0.7196510301409391	1.166229733602933	0.15301501914535007	0.8642127103688373	1.569588568646867	0.13755045704962335	0.6501484702835281	1.5979066155208848	0.08545804775850314	0.7308570653422767	1.6059208477003126	0.17168306147114995	0.9403261674360494	1.6228857229315923	0.12092822802620527	0.363662267005715	0.16474647231100933	0.06735739166346583	0.24937149590858446	-0.05309352410714113	0.06626126986622989	0.20877717495732037	0.08593736236618582	0.3019544239705759	0.35445803640449136	0.21865148865604056	0.33731918324333465	0.42282629142399103	0.47725945736880765	0.28731360035314535	0.3591808360471318	0.72410158645612	0.2067685544355922	0.2972794908480077	0.8260742640004772	0.21651440450509316	0.29541701030383377	0.842013820721332	0.24346374775671487	0.32412538170423677	0.8384758938726277	-0.005866145822941809	0.4226744258585241	0.26263491666351774	0.0316260319148705	0.45213730270525543	0.5153974876533253	0.08412759596165051	0.392589284196532	0.7595452676733331	0.1715518786404991	0.3738538594378592	0.8173315798421052	0.17408779859187878	0.39122363107054714	0.8669285489283549	0.16791927230733922	0.4258583105168797	0.8783838084303435
60	1.0	0.3168436213906452	0.5677366018182168	0.6786601537993765	0.3475224498894633	0.7147557438321175	1.1515105026661592	0.35293455529020135	0.8344771965198835	1.575379073674598	0.28470910689155876	0.6301304801525897	1.6117302987252595	0.3531066387052651	0.6361620828502093	1.5953404181464566	0.3382489045906713	0.9562820910941996	1.6399276521075974	0.10784011163938045	0.5636175050409414	0.6947580521739132	0.11508860623973674	0.7186673094182456	1.1616552234318152	0.15296065493643993	0.8638606999927447	1.5696789819914476	0.13758362034146543	0.6501905784128782	1.5980573937854745	0.085362222992442	0.7306975145910101	1.6060718571114176	0.17272942278123582	0.9420963959947569	1.626919322437061	0.12091456149448933	0.36351675470324263	0.1646770369713373	0.07045965595548594	0.23737158570219732	-0.053805743815929556	0.06646311464209759	0.2087533020406194	0.0890453492554169	0.3025355566616068	0.356222244771456	0.22184761390189914	0.3367259348507427	0.42096614771490115	0.473319659293792	0.2899599991230457	0.36603387680033306	0.7166434892934692	0.21361124497739145	0.2808416362370385	0.8138219338025758	0.2295267955092765	0.2959920626297688	0.8373761262086822	0.24699648047728312	0.3109754321062798	0.8289270614710371	-0.0070018348383338765	0.4062122903490448	0.2569541688286024	0.03496838163172953	0.46475257080379145	0.5146702654846368	0.0840852696666679	0.3922455667274056	0.7593646548851093	0.15969495712610735	0.34970690748471195	0.8155050633933542	0.16595407487969702	0.37801366952846527	0.8665085220005431	0.16092340966734825	0.43740004977075353	0.8762940038207508
